<?xml version="1.0" encoding="utf-8"?>
<!-- Generator: Adobe Illustrator 24.0.0, SVG Export Plug-In . SVG Version: 6.00 Build 0)  -->
<svg version="1.1" id="Capa_1" xmlns="http://www.w3.org/2000/svg" xmlns:xlink="http://www.w3.org/1999/xlink" x="0px" y="0px"
	 viewBox="0 0 1200 404.57" style="enable-background:new 0 0 1200 404.57;" xml:space="preserve">
<style type="text/css">
	.st0{fill-rule:evenodd;clip-rule:evenodd;fill:#E0081B;}
	.st1{fill-rule:evenodd;clip-rule:evenodd;fill:#1A171B;}
	.st2{fill-rule:evenodd;clip-rule:evenodd;fill:#2D2C2F;}
	.st3{fill-rule:evenodd;clip-rule:evenodd;fill:#2A292C;}
	.st4{fill:#E0081B;}
</style>
<g>
	<path class="st0" d="M806.03,191.94c11.04,4.86,17.63,13.21,23.45,22.46c6.37,10.11,12.96,20.1,20.54,29.38
		c5.13,6.26,10.65,12.05,19.19,13.48c1.35,0.23,2.75,0.27,4.14,0.39c0.75,0.05,1.19,0.4,1.17,1.18c-0.01,0.78-0.47,1.13-1.23,1.15
		c-0.1,0-0.2,0-0.31,0c-14.81-0.23-29.73,1.08-44.26-3.07c-11.24-3.19-19.7-9.82-25.27-20.18c-5.96-11.07-11.12-22.53-16.47-33.92
		c-1.41-2.99-2.87-5.95-4.91-8.59c-2.04-2.65-4.42-4.89-7.63-6.14c-0.82-0.32-2.51,0-2.21-1.67c0.31-1.78,1.87-0.92,2.84-0.97
		c3.1-0.09,6.21-0.01,9.27-0.63c9.13-1.87,15.15-7.43,18.6-15.92c4.12-10.08,4.33-20.42,1.06-30.71
		c-3.33-10.43-10.63-16.28-21.64-16.97c-5.12-0.33-10.27-0.11-15.39-0.22c-1.34-0.02-2.02,0.34-1.82,1.79c0.05,0.53,0,1.06,0,1.6
		c0,39.32,0,78.64,0,117.96c0,9.65,4.59,14.64,14.13,15.35c0.93,0.07,2.11-0.22,2.02,1.29c-0.07,1.29-1.18,0.99-1.97,0.99
		c-20.09,0.01-40.17,0.01-60.25,0c-0.86,0-2.1,0.42-2.02-1.21c0.04-1.37,1.1-1,1.89-1.06c9.72-0.73,14.26-5.55,14.26-15.17
		c0-37.82,0-75.63,0-113.45c0-9.59-4.74-14.56-14.29-15.17c-0.75-0.06-1.89,0.45-1.89-1c0-1.64,1.28-1.13,2.1-1.14
		c5.24-0.04,10.47-0.03,15.72-0.03c19,0.03,38.02,0.04,57.05,0.09c6.54,0.02,12.97,0.93,19.26,2.75
		c26.91,7.72,32.41,29.95,27.24,49.01C834.03,179.68,823.37,189.15,806.03,191.94z"/>
	<path class="st1" d="M999.74,107.97c0,6.45,0,12.6,0,18.77c0,5.34,0.03,10.67-0.02,16.02c-0.01,0.8,0.58,2.12-1.1,2.08
		c-1.55-0.03-1.08-1.26-1.17-2.12c-0.14-1.82-0.07-3.66-0.42-5.44c-1.75-9.18-8.72-15.81-18.13-16.17
		c-11.94-0.46-23.92-0.14-35.87-0.25c-1.48,0-1.75,0.57-1.75,1.88c0.03,19.24,0.03,38.46,0,57.68c-0.02,1.55,0.49,2.01,2.02,2
		c8.76-0.07,17.53,0.18,26.27-0.1c10.24-0.34,16.77-7.07,17.58-17.5c0.07-0.9-0.53-2.45,1.25-2.35c1.52,0.1,0.95,1.44,0.96,2.26
		c0.03,14.75,0.03,29.5-0.01,44.23c-0.02,0.81,0.61,2.19-0.87,2.33c-1.8,0.18-1.25-1.37-1.34-2.28
		c-0.92-11.31-7.64-17.57-19.04-17.62c-8.11-0.04-16.22,0.05-24.35-0.05c-1.9-0.02-2.54,0.38-2.53,2.43
		c0.1,18.27,0.06,36.52,0.04,54.79c0,1.51,0.17,2.3,2.02,2.29c9.29-0.13,18.6,0.13,27.87-0.16c14.64-0.47,25.47-7.53,33.03-19.89
		c2.35-3.82,4.13-7.91,5.58-12.16c0.33-0.98,0.44-2.36,1.94-1.96c1.62,0.43,0.45,1.6,0.28,2.33c-2.84,12.9-5.78,25.78-8.62,38.69
		c-0.37,1.78-1.09,2.33-2.95,2.33c-34.94-0.06-69.87-0.04-104.79-0.07c-0.89,0-2.44,0.68-2.35-1.17c0.06-1.76,1.56-1.03,2.46-1.08
		c8.31-0.38,13.63-5.84,13.64-14.2c0.01-38.55,0.01-77.12,0-115.68c0-8-5.58-13.62-13.61-13.92c-0.86-0.05-2.46,0.85-2.47-0.97
		c0-2.01,1.74-1.14,2.68-1.14c22.44-0.05,44.87-0.1,67.3-0.01C975.49,111.84,987.62,111.62,999.74,107.97z"/>
	<path class="st1" d="M1096.95,262.84c-13.25-0.05-24.53-1.32-35-6.04c-11.81-5.31-12.39-6.36-12.15-18.78
		c0.16-7.65,2.01-14.98,5.3-21.9c0.46-0.98,0.81-2.53,2.39-1.99c1.2,0.41,0.54,1.67,0.54,2.53c0.13,20.79,14.89,36.12,35.77,37.1
		c7.03,0.33,13.88-0.26,20.3-3.38c9.71-4.71,14.81-14.46,12.68-24.13c-0.8-3.69-2.85-6.62-5.43-9.26
		c-3.37-3.46-7.32-6.21-11.33-8.86c-11.91-7.9-23.82-15.81-35.74-23.71c-9.32-6.14-16.95-13.69-19.99-24.83
		c-6.57-24.04,9.3-47.1,34.23-50.16c11.04-1.38,21.97-0.1,32.91,0.99c5.33,0.53,10.65,0.45,15.99,0.46c1.71,0.01,2.5,0.24,2.29,2.29
		c-0.86,8.81-1.52,17.65-2.36,26.49c-0.07,0.84,0.47,2.43-1.25,2.44c-1.89,0.02-0.98-1.58-1.09-2.42
		c-1.07-8.24-5.16-14.46-12.64-18.07c-10.78-5.19-21.87-5.37-32.81-0.5c-8.77,3.93-13.47,12.82-11.67,20.98
		c0.75,3.36,2.65,5.99,5,8.39c3.25,3.29,7.13,5.78,10.97,8.28c13.23,8.62,26.51,17.13,39.69,25.83
		c9.06,5.96,15.71,13.83,17.52,24.89c3.84,23.3-8.36,42.88-31.03,49.96C1111.93,262,1103.58,262.97,1096.95,262.84z"/>
	<path class="st1" d="M118.53,214.32c12.48-29.29,24.78-58.04,36.97-86.86c3.17-7.44-0.14-12.84-7.97-13.52
		c-0.78-0.08-1.85,0.33-1.74-1.12c0.11-1.61,1.38-1.03,2.19-1.03c11.21-0.04,22.43-0.04,33.64-0.04c2.66,0,5.34,0.01,8,0.01
		c0.88,0,1.77-0.04,1.67,1.27c-0.08,1.24-1.01,0.87-1.67,0.88c-8.72,0.3-14.81,4.83-18.26,12.44
		c-18.53,40.66-36.86,81.43-55.22,122.18c-1.92,4.27-3.46,8.7-4.77,13.22c-0.23,0.79,0.3,2.09-1.14,2.3
		c-1.7,0.23-1.79-1.25-2.25-2.21c-3.64-7.8-7.28-15.63-10.91-23.46c-17.13-36.87-34.22-73.75-51.39-110.6
		c-3.76-8.08-9.58-13.52-19.05-13.86c-0.76-0.02-1.51,0.06-1.45-1.11c0.05-1.13,0.83-1.05,1.56-1.05c2.15-0.03,4.29-0.02,6.41-0.02
		c18.69,0,37.39,0,56.08,0c0.74,0,1.49,0.03,2.25,0.02c0.79-0.04,1.11,0.33,1.14,1.14c0.02,0.92-0.53,0.91-1.23,1.03
		c-8.91,1.57-11.65,6.21-8.31,14.36c11.44,27.98,22.93,55.92,34.42,83.88C117.74,212.76,118.04,213.32,118.53,214.32z"/>
	<path class="st1" d="M587.82,288.34c-186.75,0-373.5-0.01-560.28,0.01c-2.07,0-3.91,0.37-3.66-2.92c0.16-2.26,0.76-3.06,2.93-2.72
		c0.31,0.06,0.64,0.01,0.96,0.01c373.42,0,746.84,0,1120.26,0.04c1.65,0,3.83-1.02,3.83,2.45c-0.01,2.79-0.89,3.18-3.42,3.18
		C961.57,288.32,774.71,288.34,587.82,288.34z"/>
	<path class="st1" d="M379.85,185.75c0-19.03,0.03-38.05,0-57.06c0-9.01-5.11-14.33-14.06-14.78c-0.79-0.06-2.14,0.59-2.09-1.09
		c0.08-1.61,1.38-1.04,2.19-1.04c19.98-0.04,39.96-0.04,59.95-0.01c0.82,0,2.12-0.51,2.08,1.14c-0.05,1.68-1.38,0.94-2.17,0.99
		c-8.76,0.4-13.97,5.74-13.98,14.53c-0.01,39.85,0.01,79.69-0.05,119.55c0,2.14,0.36,2.94,2.72,2.89c9.2-0.17,18.4,0.1,27.56-0.23
		c14.26-0.48,24.85-7.39,32.35-19.33c2.5-3.98,4.39-8.27,5.91-12.72c0.35-1,0.53-2.34,1.99-1.89c1.49,0.46,0.38,1.6,0.22,2.37
		c-2.82,12.8-5.74,25.58-8.53,38.38c-0.45,2.05-1.35,2.59-3.45,2.58c-34.6-0.06-69.22-0.05-103.84-0.05c-0.53,0-1.06-0.02-1.6,0
		c-0.9,0.05-1.43-0.26-1.37-1.26c0.06-0.82,0.59-1,1.3-1.04c1.6-0.08,3.26-0.02,4.78-0.4c6.11-1.54,10.06-6.85,10.07-13.53
		C379.89,224.42,379.87,205.09,379.85,185.75z"/>
	<path class="st2" d="M744.9,363.97c-0.12,0.94-0.84,0.81-1.46,0.81c-4.8,0-9.6,0.03-14.41-0.02c-0.64-0.01-1.7,0.42-1.72-0.74
		c-0.02-0.98,0.93-0.64,1.48-0.7c2.5-0.19,3.62-1.73,3.63-4.04c0.05-7.57,0.04-15.16-0.01-22.74c-0.03-2.46-1.21-3.83-3.9-3.17
		c-0.61,0.15-1.32,0.49-1.6-0.35c-0.41-1.15,0.72-1.08,1.29-1.33c2.65-1.13,5.33-2.16,7.97-3.29c2.14-0.91,3.24-0.55,2.98,2.07
		c-0.14,1.3-0.03,2.64-0.03,4.7c2.32-2.22,3.95-4,6.03-5.28c7-4.43,13.99-1.15,14.93,7.06c0.77,6.8,0.19,13.65,0.37,20.47
		c0.08,3.09,0.35,5.95,4.47,5.92c0.43-0.01,0.88,0.07,0.88,0.68c0,0.5-0.31,0.74-0.79,0.74c-5.53-0.06-11.07-0.14-16.6-0.22
		c-0.1,0-0.19-0.34-0.29-0.57c0.34-0.97,1.21-0.57,1.87-0.66c2.4-0.23,3.72-1.51,3.75-3.92c0.08-7.06,0.4-14.1-0.18-21.12
		c-0.36-4.45-2.99-6.16-7.3-5.13c-4.83,1.15-7.13,4-7.13,8.92c0,4.26,0,8.53,0,12.78C739.12,361.74,739.12,361.74,744.9,363.97z"/>
	<path class="st1" d="M253,347.93c0-12.56,8.04-20.67,18.91-19.85c4.07,0.28,7.35,2.1,9.53,5.61c0.93,1.5,1.37,3.2,0.23,4.83
		c-1.08,1.54-2.72,1.45-4.35,1.2c-1.89-0.3-2.68-1.62-2.91-3.33c-0.36-2.7-1.01-5.17-4.19-5.66c-3.49-0.52-6.28,0.74-8.27,3.69
		c-4.2,6.2-2.88,17.8,2.63,22.85c4.78,4.37,12.14,2.85,15.84-3.19c0.65-1.05,0.94-3.48,2.2-2.85c1.4,0.68,0,2.68-0.47,3.96
		c-2.55,7-8.46,11.16-15,10.71c-6.28-0.42-12.06-6.02-13.52-13.14C253.25,350.9,253.13,348.97,253,347.93z"/>
	<path class="st1" d="M458.86,358.8c0-1.72,0-3.42,0-5.12c0-0.43,0.01-0.9,0.52-1.06c0.67-0.17,0.93,0.32,1.12,0.84
		c0.46,1.3,0.77,2.66,1.41,3.89c2.03,3.86,5.12,6.2,9.69,6.12c2.62-0.05,4.64-1.15,5.47-3.65c0.8-2.42,0.17-4.74-1.89-6.33
		c-1.76-1.35-3.73-2.44-5.65-3.58c-2.1-1.26-4.36-2.28-6.38-3.64c-3.94-2.63-5.26-6.38-4.01-10.82c1.2-4.2,4.67-7.05,9.02-7.43
		c2.51-0.23,4.89,0.26,7.25,0.97c0.94,0.28,2.01,0.78,2.75,0.12c3.19-2.8,2.24,0.3,2.3,1.62c0.11,2.66,0.05,5.34,0.02,8
		c0,0.48,0.26,1.15-0.44,1.37c-0.93,0.28-0.97-0.58-1.21-1.11c-0.53-1.28-0.9-2.62-1.52-3.84c-1.83-3.65-4.9-5.21-8.93-4.69
		c-2.28,0.3-4.13,1.25-4.75,3.63c-0.58,2.3,0.3,4.27,2.17,5.59c1.74,1.23,3.65,2.19,5.52,3.17c1.98,1.07,4.03,1.95,5.95,3.09
		c4.99,2.97,6.94,7.28,5.61,12.06c-1.21,4.28-5.98,7.69-11.01,7.9c-2.48,0.1-4.89-0.38-7.27-0.9c-0.73-0.17-1.58-0.64-2.17-0.43
		c-4.94,1.73-3.43-1.92-3.59-4.17C458.82,359.88,458.85,359.33,458.86,358.8L458.86,358.8z"/>
	<path class="st3" d="M890.24,358.68c0-1.5-0.02-3,0.02-4.49c0.02-0.56-0.28-1.41,0.59-1.57c0.82-0.15,1,0.61,1.16,1.25
		c0.37,1.66,1,3.25,1.96,4.67c2.18,3.21,5.09,5.06,9.09,4.94c2.47-0.06,4.39-1.08,5.31-3.4c0.97-2.44,0.28-4.64-1.56-6.42
		c-1.73-1.61-3.84-2.64-5.91-3.78c-2.15-1.16-4.35-2.27-6.38-3.62c-3.92-2.62-5.25-6.44-3.99-10.84c1.23-4.19,4.72-7.02,9.06-7.39
		c2.5-0.21,4.89,0.26,7.25,0.97c0.93,0.29,2.01,0.77,2.76,0.12c3-2.64,2.32,0.06,2.34,1.57c0.06,2.77,0.04,5.56,0.02,8.32
		c0,0.52,0.06,1.2-0.69,1.14c-0.31-0.01-0.7-0.44-0.86-0.78c-0.59-1.36-0.99-2.82-1.63-4.13c-1.81-3.67-4.87-5.27-8.9-4.79
		c-2.27,0.28-4.13,1.21-4.82,3.54c-0.68,2.33,0.26,4.26,2.06,5.64c1.51,1.15,3.24,2.03,4.92,2.93c2.27,1.19,4.63,2.17,6.82,3.49
		c4.71,2.83,6.61,6.91,5.54,11.51c-0.98,4.35-5.64,7.97-10.63,8.34c-2.59,0.2-5.11-0.29-7.61-0.83c-0.72-0.16-1.55-0.66-2.16-0.45
		c-4.92,1.68-3.71-1.86-3.76-4.32C890.23,359.75,890.24,359.22,890.24,358.68z"/>
	<path class="st1" d="M548.38,357.51c-0.99,3.28-2.63,5.5-5.27,6.93c-4.49,2.45-9.25,0.26-10.29-4.75
		c-0.27-1.35-0.34-2.74-0.36-4.12c-0.05-6.82-0.15-13.67,0.05-20.49c0.07-2.61-0.53-3.72-3.27-3.29c-0.73,0.13-1.91,0.53-2.29-0.41
		c-0.51-1.34,0.98-1.41,1.7-1.89c3.93-2.63,6.66-6.21,8.35-10.6c0.24-0.61,0.32-1.7,1.28-1.56c1.08,0.16,0.61,1.19,0.64,1.85
		c0.05,2.35,0.18,4.71-0.03,7.05c-0.21,2.35,0.74,2.98,2.9,2.74c1.36-0.14,2.76,0,4.16-0.03c1.23-0.02,1.32,0.72,1.32,1.68
		c0.02,1.03-0.55,1.26-1.42,1.22c-0.1,0-0.22-0.01-0.33,0c-2.09,0.17-4.92-0.97-6.13,0.46c-1.38,1.64-0.41,4.49-0.43,6.82
		c-0.07,5.11-0.07,10.23,0,15.36c0.03,2.31-0.28,5.04,2.43,6.09c2.52,0.98,4.17-0.78,5.53-2.7
		C547.07,357.67,547.52,357.72,548.38,357.51z"/>
	<path class="st1" d="M326.41,364.75c0.84-1.83,1.85-1.33,2.61-1.53c2.11-0.54,3.34-1.76,3.34-4.04c0-7.35,0-14.71-0.03-22.07
		c-0.03-2.89-1.25-4.49-4.39-3.71c-0.5,0.12-1.05,0.48-1.26-0.31c-0.2-0.62,0.15-0.95,0.74-1.17c3.16-1.25,6.28-2.6,9.46-3.79
		c1.44-0.52,2.14,0.09,2.02,1.71c-0.11,1.58-0.03,3.19-0.03,5.44c1.38-1.69,2.41-3.06,3.55-4.31c1.87-2.08,4.11-3.47,7.05-2.82
		c1.76,0.39,3.08,1.45,3.46,3.33c0.29,1.46,0.04,2.8-1.24,3.73c-1.36,1.01-2.71,0.79-4.19,0.08c-1.42-0.67-2.53-2.92-4.42-1.53
		c-2.13,1.61-4.04,3.76-4.15,6.53c-0.19,5.87-0.11,11.74,0.02,17.61c0.08,3.14,1.63,5.23,5.05,5.43c0.5,0.03,1.12-0.03,1.1,0.76
		c-0.01,0.56-0.42,0.67-0.88,0.67C338.44,364.75,332.63,364.75,326.41,364.75z"/>
	<path class="st1" d="M591.32,363.92c5.24-1.92,5.28-1.92,5.29-7.94c0.02-6.06,0-12.15-0.1-18.22c-0.07-4-0.49-4.37-4.33-4.24
		c-0.59,0.03-1.07,0.11-1.27-0.52c-0.23-0.7,0.31-0.9,0.81-1.11c3.06-1.22,6.09-2.53,9.17-3.71c1.93-0.74,2.29,0.29,2.28,2.07
		c-0.06,7.99-0.04,15.99-0.02,24c0,1.49,0.07,3,0.13,4.46c0.11,2.66,1.08,4.58,4.11,4.64c0.51,0.01,1.14-0.07,1.17,0.69
		c0.04,0.53-0.37,0.7-0.81,0.7c-5.46,0.02-10.93,0.01-16.39,0.01C591.35,364.48,591.33,364.21,591.32,363.92z"/>
	<path class="st1" d="M395.53,364.41c5.41-2.48,5.43-2.48,5.41-8.95c0-5.77,0.04-11.52-0.08-17.29c-0.1-4.37-0.24-4.41-4.62-4.57
		c-0.47-0.03-0.85,0-0.99-0.52c-0.18-0.64,0.14-0.94,0.71-1.18c3.16-1.24,6.29-2.61,9.47-3.78c1.84-0.66,2.04,0.52,2.03,2.04
		c-0.05,8.33-0.04,16.66-0.02,24.98c0.01,4.01-0.72,8.53,6.03,8.48c-0.21,0.26-0.44,0.53-0.65,0.79
		C407.07,364.41,401.3,364.41,395.53,364.41z"/>
	<path class="st1" d="M603.87,313.14c0.02,2.26-1.74,4.13-3.96,4.04c-2.51-0.11-3.96-1.56-3.95-4.02c0-2.33,1.39-3.71,3.78-3.83
		C602.07,309.2,603.82,310.85,603.87,313.14z"/>
	<path class="st1" d="M408.11,312.65c0.04,2.8-1.7,4.65-3.99,4.52c-2.35-0.12-3.73-1.43-3.84-3.84c-0.13-2.33,1.62-4.08,3.97-4
		C406.68,309.41,407.9,310.77,408.11,312.65z"/>
	<path class="st1" d="M680.44,170.71c-3.89-23.64-15.83-41.96-37.77-52.25c-28.47-13.36-57.71-13.32-86.52-1.08
		c-19.1,8.11-31.5,22.94-37.55,42.85c-3.79,12.45-4.51,25.21-2.78,38.05c3.18,23.5,14.3,41.93,35.41,53.63
		c14.56,8.07,30.39,10.88,49.88,10.94c5.65,0.09,14.25-0.72,22.69-2.76c23.89-5.76,42.18-18.6,51.83-41.9
		C681.97,202.9,683.1,186.92,680.44,170.71z M638.7,227.18c-6.7,13.84-16.91,23.59-32.62,26c-18.21,2.82-33.02-3.05-43.69-18.33
		c-7.06-10.14-10.23-21.72-11.68-33.81c-1.97-16.61-1.15-33.02,4.15-49.04c2.13-6.4,5.16-12.38,9.36-17.72
		c17.63-22.55,51.77-22.15,68.85,0.83c7.64,10.32,11.08,22.2,12.79,34.72c0.74,5.3,0.88,10.63,0.98,15.24
		C646.79,200.12,645.02,214.15,638.7,227.18z"/>
	<path class="st1" d="M338.32,257.69c-1.47-0.15-2.99-0.16-4.42-0.55c-7.4-1.98-11.81-7.22-14.85-13.9
		c-19.91-43.69-39.84-87.35-59.75-131.02c-0.58-1.25-1.23-2.5-1.73-3.78c-0.29-0.75-0.77-0.91-1.48-0.89
		c-0.82,0.02-1,0.59-1.16,1.25c-2.2,9.5-6.5,18.2-10.42,27.05c-15.97,36.12-31.96,72.22-48,108.3c-3.54,7.97-9.33,13.12-18.51,13.55
		c-0.91,0.04-2.1-0.24-1.96,1.32c0.15,1.34,1.23,0.96,1.99,0.96c13.89,0.02,27.78,0.01,41.65,0.01c0.8,0,1.79,0.26,1.81-1.13
		c0-1.34-0.96-1.08-1.79-1.17c-7.87-0.81-10.97-5.84-8.03-13.24c3.22-8.1,6.65-16.13,9.91-24.23c0.55-1.4,1.32-1.85,2.82-1.84
		c15.18,0.05,30.33,0.04,45.51,0.03c1.21,0,2.2-0.04,2.77,1.42c3.3,8.54,6.88,16.97,10,25.58c2.28,6.31-1.28,11.67-7.62,12.29
		c-0.97,0.09-2.74-0.68-2.54,1.34c0.16,1.62,1.7,0.94,2.62,0.94c10.36,0.04,20.72,0.02,31.07,0.02c5.45,0,10.9,0,16.35,0
		c5.23,0,10.46,0,15.71,0c0.88,0,1.79,0.04,1.69-1.26C339.89,257.6,339.06,257.76,338.32,257.69z M226.19,209.38
		c7.15-17.17,14.22-34.09,21.6-51.79c7.03,17.61,13.78,34.51,20.67,51.79C254.22,209.38,240.47,209.38,226.19,209.38z"/>
	<path class="st1" d="M684.93,358.44c-1.16,0.85-2.03,2.64-3.72,1.85c-1.76-0.83-1.28-2.78-1.3-4.31
		c-0.06-6.09,0.02-12.17-0.11-18.26c-0.09-5.93-2.75-8.85-8.58-9.51c-2.22-0.28-4.51-0.33-6.7,0c-4.35,0.62-7.95,2.64-9.48,7.05
		c-0.55,1.62-0.53,3.45,0.99,4.74c0.93,0.81,2.04,1.06,3.27,0.56c1.97-0.82,2.08-2.45,2.08-4.24c0.02-4.65,3.18-6.91,7.67-5.59
		c2.77,0.81,3.89,3.27,4.38,7.8c0.32,3.02-1.74,3.1-3.54,3.84c-4.63,1.9-9.42,3.55-13.21,6.96c-3.78,3.38-4.37,9.18-1.43,13.03
		c2.76,3.62,8.05,4.31,12.4,1.53c1.86-1.17,3.61-2.52,5.49-3.86c0.92,4.49,2.05,5.67,5.08,5.42c3.41-0.29,7.4-4.16,7.56-7.37
		C685.45,358.19,685.15,358.27,684.93,358.44z M673.4,352.82c0,4.48-1.63,6.67-6,7.85c-2.07,0.55-4.02,0.31-5.54-1.43
		c-1.82-2.09-2.36-4.45-1.34-7.1c1.12-2.99,8.82-8.2,11.96-8.2c1.06,0,0.9,0.63,0.92,1.21c0.02,1.8,0,3.63,0,5.44
		C673.4,351.32,673.4,352.07,673.4,352.82z"/>
	<path class="st3" d="M827.79,328.04c-11.71-0.63-20.65,9.85-18.72,21.96c1.88,11.87,11.35,18.41,21.94,15.18
		c7.33-2.24,12.43-10.03,12.42-18.97C843.42,336.4,836.64,328.52,827.79,328.04z M835,357.48c-2.24,6.11-9.17,7.53-13.63,2.83
		c-5.14-5.41-6.87-18.87-3.26-25.44c2.92-5.32,9.63-5.85,13.6-0.97c3.64,4.47,4.29,9.86,4.52,15.14
		C836.15,352.07,835.97,354.84,835,357.48z"/>
	<g>
		<path class="st4" d="M56.01,50.72c0,6.97-5.23,11.3-13.58,11.3h-6.3v8.62h-7.24V39.38h13.54C50.78,39.38,56.01,43.71,56.01,50.72z
			 M48.68,50.72c0-3.44-2.24-5.45-6.66-5.45h-5.9v10.86h5.9C46.45,56.13,48.68,54.12,48.68,50.72z"/>
		<path class="st4" d="M85.37,64.84v5.81H61.15V39.38h23.64v5.81H68.35v6.79h14.52v5.63H68.35v7.24H85.37z"/>
		<path class="st4" d="M111.06,70.65l-6.03-8.71h-0.36h-6.3v8.71h-7.24V39.38h13.54c8.35,0,13.58,4.33,13.58,11.35
			c0,4.69-2.37,8.13-6.43,9.87l7.01,10.05H111.06z M104.27,45.27h-5.9v10.9h5.9c4.42,0,6.66-2.05,6.66-5.45
			C110.93,47.28,108.7,45.27,104.27,45.27z"/>
		<path class="st4" d="M123.98,39.38h7.24v31.27h-7.24V39.38z"/>
		<path class="st4" d="M136.68,55.01c0-9.29,7.24-16.17,17.11-16.17c9.83,0,17.11,6.83,17.11,16.17c0,9.34-7.28,16.17-17.11,16.17
			C143.91,71.19,136.68,64.3,136.68,55.01z M163.57,55.01c0-5.94-4.2-10.01-9.78-10.01S144,49.07,144,55.01s4.2,10.01,9.78,10.01
			S163.57,60.96,163.57,55.01z M155.75,30.4h7.51l-8.09,6.43h-5.45L155.75,30.4z"/>
		<path class="st4" d="M176.36,39.38h14.21c10.23,0,17.25,6.17,17.25,15.64s-7.01,15.64-17.25,15.64h-14.21V39.38z M190.21,64.71
			c6.21,0,10.28-3.71,10.28-9.69s-4.07-9.69-10.28-9.69h-6.61v19.39H190.21z"/>
		<path class="st4" d="M213.27,39.38h7.24v31.27h-7.24V39.38z"/>
		<path class="st4" d="M225.96,55.01c0-9.43,7.24-16.17,16.98-16.17c5.41,0,9.92,1.97,12.87,5.54l-4.65,4.29
			c-2.1-2.41-4.74-3.66-7.86-3.66c-5.85,0-10.01,4.11-10.01,10.01s4.15,10.01,10.01,10.01c3.13,0,5.76-1.25,7.86-3.71l4.65,4.29
			c-2.95,3.62-7.46,5.58-12.91,5.58C233.2,71.19,225.96,64.44,225.96,55.01z"/>
		<path class="st4" d="M258.05,55.01c0-9.29,7.24-16.17,17.11-16.17c9.83,0,17.11,6.83,17.11,16.17c0,9.34-7.28,16.17-17.11,16.17
			C265.28,71.19,258.05,64.3,258.05,55.01z M284.94,55.01c0-5.94-4.2-10.01-9.78-10.01s-9.78,4.07-9.78,10.01s4.2,10.01,9.78,10.01
			S284.94,60.96,284.94,55.01z"/>
	</g>
</g>
</svg>
